<svg xmlns="http://www.w3.org/2000/svg" version="1.1" xmlns:xlink="http://www.w3.org/1999/xlink" xmlns:svgjs="http://svgjs.com/svgjs" overflow="visible" viewBox="0 0 568.8 143.08"><g class="signage-logo" opacity="1"><defs id="SvgjsDefs1002"></defs><g id="SvgjsG1008" transform="scale(1.2311688311688311)" opacity="1"><g id="SvgjsG1009" class="Y7ELoxDg-" transform="translate(169.50537511685047, -13.245383391446556) scale(1.4193522201965028)" light-content="false" non-strokable="false" fill="#f5a623"><path d="M22.699 49.426H38.64v15.941H22.699zm19.477 6.519h15.941v15.938H42.176zm19.656-6.519h15.941v15.941H61.832zM22.699 75.27H38.64v15.938H22.699zm19.477 0h15.941v15.938H42.176zm19.656-7.004h15.941v15.938H61.832zm0-44.442h15.941v15.941H61.832zM42.59 36.867h15.941v15.941H42.59zM22.699 9.332H38.64v15.941H22.699z"></path></g><g id="SvgjsG1010" class="text" transform="translate(379.94347464061104, 82.96297322151474) scale(1)" light-content="false" fill="#f5a623"><path d="M-48.42 -21.62C-47.4 -23.47 -46.89 -25.6 -46.89 -28C-46.89 -32.5 -48.5 -35.63 -51.73 -37.4C-54.97 -39.17 -59.35 -40.05 -64.89 -40.05C-69.51 -40.05 -74.63 -39.77 -80.25 -39.21L-80.25 0L-67.36 0L-67.36 -35.23C-66.6 -35.47 -65.76 -35.59 -64.83 -35.59C-62.87 -35.59 -61.49 -34.9 -60.71 -33.52C-59.92 -32.13 -59.53 -30.23 -59.53 -27.82C-59.53 -25.25 -59.98 -23.36 -60.89 -22.13C-61.79 -20.91 -63.39 -20.3 -65.68 -20.3C-65.68 -18.69 -65.06 -17.55 -63.84 -16.86C-62.61 -16.18 -61.04 -15.84 -59.11 -15.84C-56.7 -15.84 -54.57 -16.34 -52.73 -17.34C-50.88 -18.35 -49.45 -19.77 -48.42 -21.62Z M-6.08 -21.05C-4.86 -23 -4.25 -25.31 -4.25 -28C-4.25 -32.58 -5.76 -35.73 -8.79 -37.46C-11.82 -39.19 -16.11 -40.05 -21.65 -40.05C-26.27 -40.05 -31.39 -39.77 -37.01 -39.21L-37.01 0L-24.12 0L-24.12 -35.23C-23.36 -35.47 -22.51 -35.59 -21.59 -35.59C-19.82 -35.59 -18.61 -34.89 -17.95 -33.49C-17.28 -32.08 -16.95 -30.19 -16.95 -27.82C-16.95 -25.29 -17.33 -23.41 -18.1 -22.16C-18.86 -20.92 -20.31 -20.3 -22.43 -20.3C-22.43 -19.65 -22.25 -18.87 -21.89 -17.95L-14.91 0L-1.72 0L-11.23 -16.8C-9.02 -17.69 -7.31 -19.1 -6.08 -21.05Z M37.91 -35.65C34.78 -39.19 30.02 -40.95 23.64 -40.95C17.33 -40.95 12.6 -39.07 9.43 -35.29C6.25 -31.52 4.67 -26.3 4.67 -19.63C4.67 -15.5 5.4 -11.84 6.87 -8.67C8.33 -5.5 10.49 -3.04 13.34 -1.29C16.19 0.45 19.62 1.32 23.64 1.32C29.82 1.32 34.53 -0.64 37.76 -4.58C40.99 -8.51 42.61 -13.79 42.61 -20.42C42.61 -27.04 41.04 -32.12 37.91 -35.65ZM27.79 -7.95C27.15 -4.74 25.77 -3.13 23.64 -3.13C21.51 -3.13 20.13 -4.74 19.48 -7.95C18.84 -11.16 18.52 -15.2 18.52 -20.06C18.52 -24.83 18.84 -28.77 19.48 -31.86C20.13 -34.95 21.51 -36.5 23.64 -36.5C25.77 -36.5 27.15 -34.95 27.79 -31.86C28.44 -28.77 28.76 -24.83 28.76 -20.06C28.76 -15.2 28.44 -11.16 27.79 -7.95Z M77.06 -39.18C74.33 -40.36 71.2 -40.95 67.66 -40.95C64.89 -40.95 62.27 -40.48 59.8 -39.54C57.33 -38.59 55.35 -37.21 53.84 -35.38C52.34 -33.56 51.58 -31.34 51.58 -28.73C51.58 -26.52 52.07 -24.65 53.06 -23.13C54.04 -21.6 55.23 -20.39 56.61 -19.48C58 -18.58 59.85 -17.55 62.18 -16.38C64.11 -15.46 65.64 -14.65 66.76 -13.97C67.88 -13.29 68.82 -12.44 69.56 -11.41C70.3 -10.39 70.67 -9.15 70.67 -7.71C70.67 -6.26 70.24 -5.14 69.38 -4.34C68.52 -3.53 67.34 -3.13 65.86 -3.13C64.05 -3.13 62.78 -3.73 62.06 -4.94C61.34 -6.14 60.98 -7.81 60.98 -9.94C60.98 -10.94 61.1 -12.05 61.34 -13.25C60.58 -13.49 59.53 -13.61 58.21 -13.61C56.04 -13.61 54.24 -13 52.82 -11.77C51.39 -10.55 50.68 -8.89 50.68 -6.81C50.68 -3.87 52.09 -1.79 54.93 -0.54C57.76 0.7 61.12 1.32 65.01 1.32C70.03 1.32 74.13 0.28 77.3 -1.81C80.47 -3.89 82.06 -7.15 82.06 -11.56C82.06 -13.77 81.57 -15.64 80.58 -17.16C79.6 -18.69 78.4 -19.9 77 -20.81C75.59 -21.71 73.73 -22.75 71.4 -23.91C69.47 -24.83 67.94 -25.64 66.82 -26.32C65.7 -27 64.76 -27.85 64.02 -28.88C63.28 -29.9 62.91 -31.14 62.91 -32.58C62.91 -33.79 63.26 -34.74 63.96 -35.44C64.66 -36.15 65.62 -36.5 66.82 -36.5C69.51 -36.5 70.86 -34.85 70.86 -31.56C70.86 -30.27 70.73 -28.97 70.49 -27.64C71.38 -27.36 72.42 -27.22 73.63 -27.22C75.83 -27.22 77.64 -27.74 79.05 -28.79C80.45 -29.83 81.15 -31.38 81.15 -33.43C81.15 -36.08 79.79 -37.99 77.06 -39.18Z"></path></g><g id="SvgjsG1011" class="text" transform="translate(89.16000366210938, 82.51180561978913) scale(1)" light-content="false" fill="#4a4a4a"><path d="M-60.5 -25.54C-59.25 -26.98 -58.63 -28.67 -58.63 -30.59C-58.63 -34.25 -59.98 -36.74 -62.69 -38.06C-65.4 -39.39 -69.11 -40.05 -73.81 -40.05C-78.54 -40.05 -83.66 -39.81 -89.16 -39.33L-89.16 -0.24C-83.66 0.32 -78.62 0.6 -74.05 0.6C-68.87 0.6 -64.47 -0.38 -60.86 -2.35C-57.24 -4.32 -55.44 -7.41 -55.44 -11.62C-55.44 -14.67 -56.3 -17.1 -58.03 -18.91C-59.75 -20.72 -62.18 -21.9 -65.31 -22.46C-63.35 -23.07 -61.74 -24.09 -60.5 -25.54ZM-74.65 -23.19C-75.17 -23.19 -75.71 -23.25 -76.28 -23.37L-76.28 -35.23C-75.43 -35.47 -74.59 -35.59 -73.75 -35.59C-70.65 -35.59 -69.11 -33.73 -69.11 -29.99C-69.11 -27.9 -69.56 -26.25 -70.46 -25.02C-71.37 -23.8 -72.76 -23.19 -74.65 -23.19ZM-73.81 -3.85C-74.69 -3.85 -75.51 -3.97 -76.28 -4.22L-76.28 -19.03C-75.55 -19.11 -74.99 -19.15 -74.59 -19.15C-72.26 -19.15 -70.59 -18.5 -69.59 -17.19C-68.59 -15.89 -68.08 -13.97 -68.08 -11.44C-68.08 -9.11 -68.54 -7.27 -69.44 -5.9C-70.34 -4.54 -71.8 -3.85 -73.81 -3.85Z M-17.77 -3.07C-15.46 -6 -14.3 -10.48 -14.3 -16.5L-14.3 -39.75L-23.4 -39.75L-23.4 -15.84C-23.4 -12.91 -23.52 -10.59 -23.76 -8.88C-24 -7.18 -24.48 -5.89 -25.2 -5.03C-25.93 -4.17 -26.97 -3.73 -28.34 -3.73C-29.7 -3.73 -30.72 -4.16 -31.41 -5C-32.09 -5.84 -32.55 -7.06 -32.79 -8.64C-33.03 -10.23 -33.15 -12.41 -33.15 -15.18L-33.15 -39.75L-46.04 -39.75L-46.04 -14.51C-46.04 -9.01 -44.71 -5 -42.04 -2.47C-39.37 0.06 -35.22 1.32 -29.6 1.32C-24.02 1.32 -20.08 -0.14 -17.77 -3.07Z M10.09 -39.75L-2.8 -39.75L-2.8 0L10.09 0Z M22.13 -39.75L22.13 0L45.26 0L45.86 -5.42L35.02 -5.42L35.02 -39.75Z M71.16 -40.05C66.02 -40.05 60.7 -39.81 55.2 -39.33L55.2 -0.24C60.7 0.32 65.74 0.6 70.31 0.6C77.14 0.6 82.3 -1.18 85.79 -4.76C89.28 -8.33 91.03 -13.55 91.03 -20.42C91.03 -27.12 89.4 -32.07 86.15 -35.26C82.9 -38.45 77.9 -40.05 71.16 -40.05ZM75.91 -8.46C75.11 -5.39 73.55 -3.85 71.22 -3.85C70.13 -3.85 69.09 -3.99 68.08 -4.28L68.08 -35.11C68.65 -35.27 69.15 -35.39 69.59 -35.47C70.03 -35.55 70.55 -35.59 71.16 -35.59C73.53 -35.59 75.11 -34.15 75.91 -31.26C76.72 -28.37 77.12 -24.63 77.12 -20.06C77.12 -15.4 76.72 -11.53 75.91 -8.46Z"></path></g></g></g></svg>